<svg width="1717.402344" height="51.339111" viewBox="0 0 1717.4 51.3391" fill="none" xmlns="http://www.w3.org/2000/svg" xmlns:xlink="http://www.w3.org/1999/xlink">
	<desc>
			Created with Pixso.
	</desc>
	<defs>
		<filter id="filter_17_6763_dd" x="0.000000" y="0.000000" width="1717.402344" height="51.339111" filterUnits="userSpaceOnUse" color-interpolation-filters="sRGB">
			<feFlood flood-opacity="0" result="BackgroundImageFix"/>
			<feGaussianBlur in="BackgroundImage" stdDeviation="8.9533"/>
			<feComposite in2="SourceAlpha" operator="in" result="effect_backgroundBlur_1"/>
			<feBlend mode="normal" in="SourceGraphic" in2="effect_backgroundBlur_1" result="shape"/>
		</filter>
		<clipPath id="clip17_6763">
			<rect id="Frame 2043683043" rx="0.000000" width="1716.865479" height="50.801922" transform="translate(0.268599 0.268599)" fill="white" fill-opacity="0"/>
		</clipPath>
	</defs>
	<g filter="url(#filter_17_6763_dd)">
		<rect id="Frame 2043683043" rx="0.000000" width="1716.865479" height="50.801922" transform="translate(0.268599 0.268599)" fill="#BCEC30" fill-opacity="1.000000"/>
		<g clip-path="url(#clip17_6763)">
			<path id="Викторина" d="M76.85 30.6Q78.12 31.19 79.66 31.19Q81.22 31.19 82.49 30.59Q82.64 30.52 82.79 30.44Q83.63 29.98 84.25 29.33Q84.67 28.89 84.99 28.36Q85.21 28 85.37 27.6Q85.79 26.58 85.79 25.39Q85.79 24.22 85.38 23.21Q85.21 22.81 84.99 22.43Q84.66 21.89 84.24 21.45Q83.62 20.8 82.79 20.36Q82.63 20.27 82.47 20.2Q81.2 19.6 79.66 19.6Q78.13 19.6 76.87 20.18Q76.69 20.26 76.51 20.36Q75.67 20.81 75.04 21.48Q74.63 21.91 74.32 22.43Q74.11 22.78 73.96 23.16Q73.53 24.19 73.53 25.39Q73.53 26.61 73.97 27.66Q74.12 28.02 74.32 28.36Q74.63 28.88 75.03 29.3Q75.66 29.98 76.51 30.44Q76.68 30.53 76.85 30.6ZM34.71 26.14Q34.16 25.46 33.15 25.16Q33.78 24.85 34.17 24.35Q34.25 24.26 34.31 24.16Q34.41 24.01 34.48 23.86Q34.73 23.33 34.73 22.69Q34.73 21.92 34.39 21.34Q34.12 20.88 33.64 20.55Q32.55 19.8 30.6 19.8L25.39 19.8L25.39 31L30.91 31Q33 31 34.13 30.16Q34.61 29.81 34.89 29.33Q35.26 28.7 35.26 27.84Q35.26 27.03 34.91 26.43Q34.82 26.28 34.71 26.15Q34.71 26.14 34.71 26.14ZM40.52 19.8L37.95 19.8L37.95 31L40.39 31L45.74 23.71L45.74 31L48.3 31L48.3 19.8L45.87 19.8L40.52 27.09L40.52 19.8ZM54.27 26.48L56.06 26.48L58.97 31L61.91 31L58.14 25.2L61.8 19.8L59.07 19.8L56.12 24.32L54.27 24.32L54.27 19.8L51.69 19.8L51.69 31L54.27 31L54.27 26.48ZM68.62 21.91L72.2 21.91L72.2 19.8L62.49 19.8L62.49 21.91L66.06 21.91L66.06 31L68.62 31L68.62 21.91ZM95.86 20.29Q94.76 19.8 93.27 19.8L88.43 19.8L88.43 31L91.02 31L91.02 27.91L93.27 27.91Q94.76 27.91 95.86 27.42Q96.72 27.04 97.27 26.39Q97.42 26.21 97.54 26.01Q97.63 25.88 97.7 25.74Q98.14 24.92 98.14 23.86Q98.14 22.74 97.66 21.89Q97.6 21.79 97.54 21.7Q97.43 21.53 97.3 21.37Q96.74 20.69 95.86 20.29ZM103.07 19.8L100.49 19.8L100.49 31L102.94 31L108.28 23.71L108.28 31L110.84 31L110.84 19.8L108.41 19.8L103.07 27.09L103.07 19.8ZM124.54 31L124.54 19.8L121.95 19.8L121.95 24.21L116.86 24.21L116.86 19.8L114.27 19.8L114.27 31L116.86 31L116.86 26.4L121.95 26.4L121.95 31L124.54 31ZM130.36 28.6L135.56 28.6L136.56 31L139.27 31L134.27 19.8L131.71 19.8L126.72 31L129.37 31L130.36 28.6ZM30.38 24.44L27.96 24.44L27.96 21.71L30.38 21.71Q31.21 21.71 31.65 22.07Q31.79 22.18 31.88 22.32Q32.09 22.62 32.09 23.07Q32.09 23.58 31.85 23.9Q31.77 24.01 31.66 24.09Q31.23 24.44 30.38 24.44ZM81.05 28.72Q80.41 28.98 79.66 28.98Q78.89 28.98 78.24 28.71Q78.05 28.63 77.87 28.52Q77.5 28.31 77.2 28.03Q76.86 27.69 76.61 27.25Q76.57 27.18 76.53 27.1Q76.15 26.34 76.15 25.39Q76.15 24.46 76.52 23.71Q76.56 23.62 76.61 23.54Q76.87 23.08 77.23 22.74Q77.51 22.47 77.87 22.27Q78.05 22.16 78.24 22.08Q78.89 21.81 79.66 21.81Q80.41 21.81 81.05 22.07Q81.26 22.16 81.45 22.27Q81.8 22.47 82.09 22.74Q82.45 23.08 82.71 23.54Q82.76 23.62 82.8 23.71Q83.17 24.46 83.17 25.39Q83.17 26.34 82.79 27.1Q82.75 27.18 82.71 27.25Q82.46 27.69 82.12 28.03Q81.82 28.31 81.45 28.52Q81.26 28.63 81.05 28.72ZM94.9 25.29Q94.3 25.8 93.13 25.8L91.02 25.8L91.02 21.91L93.13 21.91Q94.3 21.91 94.9 22.41Q95.07 22.55 95.19 22.71Q95.51 23.17 95.51 23.86Q95.51 24.52 95.2 24.97Q95.08 25.15 94.9 25.29ZM132.97 22.34L134.75 26.63L131.2 26.63L132.97 22.34ZM32.37 28.53Q31.94 29.07 30.81 29.07L27.96 29.07L27.96 26.24L30.81 26.24Q31.96 26.24 32.39 26.8Q32.64 27.12 32.64 27.64Q32.64 28.19 32.37 28.53Z" fill="#202027" fill-opacity="1.000000" fill-rule="evenodd"/>
			<path id="Star" d="M177.06 16L174.45 23.05L167.39 25.66L174.45 28.28L177.06 35.33L179.67 28.28L186.73 25.66L179.67 23.05L177.06 16Z" fill="#202027" fill-opacity="1.000000" fill-rule="evenodd"/>
			<path id="угадай число" d="M278.97 18.15Q279.71 19.07 281.6 19.07Q283.15 19.07 283.92 18.45Q284.1 18.3 284.25 18.11Q284.69 17.53 284.7 16.63L282.93 16.63Q282.91 17.12 282.66 17.41Q282.62 17.46 282.57 17.5Q282.24 17.8 281.6 17.8Q280.88 17.8 280.55 17.44Q280.28 17.15 280.27 16.63L278.49 16.63Q278.51 17.57 278.97 18.15ZM324.41 30.66Q325.62 31.19 327.07 31.19Q328.53 31.19 329.71 30.67Q330.41 30.37 330.98 29.9Q331.37 29.58 331.7 29.19L330.03 27.65Q329.4 28.39 328.6 28.72Q327.96 28.98 327.22 28.98Q326.29 28.98 325.53 28.61Q325.45 28.57 325.36 28.52Q324.94 28.29 324.62 27.96Q324.31 27.65 324.09 27.25Q324.04 27.18 324.01 27.1Q323.63 26.34 323.63 25.39Q323.63 24.46 324 23.71Q324.04 23.62 324.09 23.54Q324.32 23.12 324.64 22.8Q324.96 22.49 325.36 22.27Q325.45 22.22 325.53 22.18Q326.29 21.81 327.22 21.81Q327.98 21.81 328.62 22.08Q329.41 22.4 330.03 23.12L331.7 21.59Q331.39 21.22 331.03 20.92Q330.44 20.43 329.72 20.12Q328.54 19.6 327.09 19.6Q325.58 19.6 324.33 20.17Q324.15 20.26 323.97 20.35Q323.19 20.77 322.6 21.38Q322.14 21.84 321.8 22.41Q321.62 22.71 321.49 23.01Q321.01 24.1 321.01 25.39Q321.01 26.68 321.48 27.76Q321.62 28.08 321.8 28.38Q322.14 28.94 322.59 29.4Q323.18 30.02 323.97 30.44Q324.19 30.56 324.41 30.66ZM349.72 30.6Q350.99 31.19 352.53 31.19Q354.09 31.19 355.36 30.59Q355.51 30.52 355.66 30.44Q356.5 29.98 357.12 29.33Q357.54 28.89 357.85 28.36Q358.08 28 358.24 27.6Q358.66 26.58 358.66 25.39Q358.66 24.22 358.25 23.21Q358.08 22.81 357.85 22.43Q357.53 21.89 357.11 21.45Q356.49 20.8 355.66 20.36Q355.5 20.27 355.34 20.2Q354.07 19.6 352.53 19.6Q351 19.6 349.74 20.18Q349.56 20.26 349.38 20.36Q348.54 20.81 347.91 21.48Q347.5 21.91 347.19 22.43Q346.98 22.78 346.83 23.16Q346.4 24.19 346.4 25.39Q346.4 26.61 346.83 27.66Q346.99 28.02 347.19 28.36Q347.5 28.88 347.9 29.3Q348.53 29.98 349.38 30.44Q349.55 30.53 349.72 30.6ZM220.86 28.66L225.63 19.8L223.09 19.8L220.02 25.81L217.04 19.8L214.27 19.8L218.69 28.02L218.59 28.15Q218.27 28.64 217.89 28.88Q217.79 28.94 217.69 28.98Q217.38 29.11 217.02 29.11Q216.58 29.11 215.91 28.9L215.28 30.87Q216.23 31.25 217.1 31.25Q217.59 31.25 218.04 31.13Q218.65 30.97 219.21 30.6Q220.18 29.94 220.86 28.66ZM230.07 21.91L235.39 21.91L235.41 19.8L227.5 19.8L227.5 31L230.08 31L230.07 21.91ZM237.84 28.6L243.04 28.6L244.03 31L246.75 31L241.74 19.8L239.19 19.8L234.19 31L236.85 31L237.84 28.6ZM260.53 33.32L260.53 28.88L258.96 28.88L258.96 19.8L250.35 19.8L250.22 23.3Q250.13 25.97 249.71 27.41Q249.39 28.51 248.73 28.79Q248.53 28.87 248.29 28.88L247.84 28.88L247.82 33.32L250.22 33.32L250.22 31L258.13 31L258.13 33.32L260.53 33.32ZM265.39 28.6L270.59 28.6L271.59 31L274.3 31L269.3 19.8L266.74 19.8L261.75 31L264.4 31L265.39 28.6ZM279.01 19.8L276.43 19.8L276.43 31L278.88 31L284.22 23.71L284.22 31L286.78 31L286.78 19.8L284.35 19.8L279.01 27.09L279.01 19.8ZM304.58 31L304.58 19.8L302.01 19.8L302.01 24.83Q301.72 24.96 301.42 25.06Q300.56 25.33 299.62 25.33Q298.45 25.33 297.83 24.75Q297.79 24.71 297.75 24.66Q297.21 24.08 297.21 23.01L297.21 19.8L294.66 19.8L294.66 23.3Q294.66 24.97 295.47 26Q295.64 26.22 295.85 26.41Q297.05 27.49 299.31 27.49Q300.56 27.49 302.01 26.96L302.01 31L304.58 31ZM310.58 19.8L308 19.8L308 31L310.45 31L315.79 23.71L315.79 31L318.35 31L318.35 19.8L315.92 19.8L310.58 27.09L310.58 19.8ZM343.74 31L343.74 19.8L335.14 19.8L334.98 24.34Q334.88 26.67 334.51 27.77Q334.27 28.49 333.79 28.74Q333.54 28.87 333.22 28.87Q332.96 28.87 332.75 28.8L332.59 31Q333.34 31.17 333.87 31.17Q334.86 31.17 335.51 30.7Q335.7 30.56 335.86 30.38Q336.58 29.59 336.88 28.11Q337.18 26.63 337.26 24.24L337.34 21.91L341.18 21.91L341.18 31L343.74 31ZM353.92 28.72Q353.28 28.98 352.53 28.98Q351.76 28.98 351.11 28.71Q350.92 28.63 350.74 28.52Q350.37 28.31 350.07 28.03Q349.73 27.69 349.48 27.25Q349.44 27.18 349.4 27.1Q349.02 26.34 349.02 25.39Q349.02 24.46 349.39 23.71Q349.43 23.62 349.48 23.54Q349.73 23.08 350.1 22.74Q350.38 22.47 350.74 22.27Q350.92 22.16 351.11 22.08Q351.76 21.81 352.53 21.81Q353.28 21.81 353.92 22.07Q354.13 22.16 354.32 22.27Q354.67 22.47 354.96 22.74Q355.32 23.08 355.58 23.54Q355.63 23.62 355.67 23.71Q356.03 24.46 356.03 25.39Q356.03 26.34 355.66 27.1Q355.62 27.18 355.58 27.25Q355.33 27.69 354.99 28.03Q354.69 28.31 354.32 28.52Q354.13 28.63 353.92 28.72ZM252.17 26.89Q252.43 25.54 252.51 23.54L252.56 21.91L256.4 21.91L256.4 28.88L251.39 28.88Q251.92 28.24 252.17 26.89ZM240.45 22.34L242.22 26.63L238.67 26.63L240.45 22.34ZM268 22.34L269.78 26.63L266.23 26.63L268 22.34Z" fill="#202027" fill-opacity="1.000000" fill-rule="evenodd"/>
			<path id="Star" d="M397.2 16L394.58 23.05L387.53 25.66L394.58 28.28L397.2 35.33L399.81 28.28L406.86 25.66L399.81 23.05L397.2 16Z" fill="#202027" fill-opacity="1.000000" fill-rule="evenodd"/>
			<path id="Переверни текст" d="M589.73 30.66Q590.94 31.19 592.39 31.19Q593.85 31.19 595.03 30.67Q595.73 30.37 596.3 29.9Q596.69 29.58 597.01 29.19L595.35 27.65Q594.72 28.39 593.92 28.72Q593.28 28.98 592.53 28.98Q591.6 28.98 590.85 28.61Q590.76 28.57 590.68 28.52Q590.26 28.29 589.94 27.96Q589.63 27.65 589.4 27.25Q589.36 27.18 589.33 27.1Q588.95 26.34 588.95 25.39Q588.95 24.46 589.31 23.71Q589.36 23.62 589.4 23.54Q589.64 23.12 589.96 22.8Q590.28 22.49 590.68 22.27Q590.76 22.22 590.85 22.18Q591.6 21.81 592.53 21.81Q593.29 21.81 593.94 22.08Q594.73 22.4 595.35 23.12L597.01 21.59Q596.71 21.22 596.34 20.92Q595.76 20.43 595.04 20.12Q593.86 19.6 592.4 19.6Q590.9 19.6 589.65 20.17Q589.47 20.26 589.29 20.35Q588.51 20.77 587.91 21.38Q587.46 21.84 587.12 22.41Q586.94 22.71 586.8 23.01Q586.33 24.1 586.33 25.39Q586.33 26.68 586.8 27.76Q586.94 28.08 587.12 28.38Q587.46 28.94 587.9 29.4Q588.5 30.02 589.29 30.44Q589.51 30.56 589.73 30.66ZM445.86 31L445.86 19.8L435.65 19.8L435.65 31L438.23 31L438.23 21.91L443.29 21.91L443.29 31L445.86 31ZM457.96 31L457.96 28.92L451.86 28.92L451.86 26.32L457.06 26.32L457.06 24.31L451.86 24.31L451.86 21.87L457.75 21.87L457.75 19.8L449.28 19.8L449.28 31L457.96 31ZM468.12 20.29Q467.03 19.8 465.54 19.8L460.69 19.8L460.69 31L463.29 31L463.29 27.91L465.54 27.91Q467.03 27.91 468.12 27.42Q468.98 27.04 469.53 26.39Q469.68 26.21 469.81 26.01Q469.89 25.88 469.97 25.74Q470.4 24.92 470.4 23.86Q470.4 22.74 469.92 21.89Q469.87 21.79 469.81 21.7Q469.7 21.53 469.57 21.37Q469.01 20.69 468.12 20.29ZM481.43 31L481.43 28.92L475.33 28.92L475.33 26.32L480.53 26.32L480.53 24.31L475.33 24.31L475.33 21.87L481.22 21.87L481.22 19.8L472.76 19.8L472.76 31L481.43 31ZM493.49 26.14Q492.94 25.46 491.93 25.16Q492.56 24.85 492.95 24.35Q493.03 24.26 493.09 24.16Q493.19 24.01 493.26 23.86Q493.51 23.33 493.51 22.69Q493.51 21.92 493.17 21.34Q492.9 20.88 492.42 20.55Q491.33 19.8 489.38 19.8L484.16 19.8L484.16 31L489.68 31Q491.78 31 492.91 30.16Q493.39 29.81 493.67 29.33Q494.04 28.7 494.04 27.84Q494.04 27.03 493.69 26.43Q493.6 26.28 493.49 26.15Q493.49 26.14 493.49 26.14ZM505.4 31L505.4 28.92L499.3 28.92L499.3 26.32L504.5 26.32L504.5 24.31L499.3 24.31L499.3 21.87L505.19 21.87L505.19 19.8L496.72 19.8L496.72 31L505.4 31ZM515.56 20.29Q514.47 19.8 512.98 19.8L508.13 19.8L508.13 31L510.73 31L510.73 27.91L512.98 27.91Q514.47 27.91 515.56 27.42Q516.42 27.04 516.97 26.39Q517.12 26.21 517.25 26.01Q517.33 25.88 517.41 25.74Q517.84 24.92 517.84 23.86Q517.84 22.74 517.36 21.89Q517.31 21.79 517.25 21.7Q517.14 21.53 517.01 21.37Q516.45 20.69 515.56 20.29ZM530.47 31L530.47 19.8L527.88 19.8L527.88 24.21L522.79 24.21L522.79 19.8L520.2 19.8L520.2 31L522.79 31L522.79 26.4L527.88 26.4L527.88 31L530.47 31ZM536.49 19.8L533.91 19.8L533.91 31L536.36 31L541.7 23.71L541.7 31L544.26 31L544.26 19.8L541.83 19.8L536.49 27.09L536.49 19.8ZM557.83 21.91L561.42 21.91L561.42 19.8L551.7 19.8L551.7 21.91L555.27 21.91L555.27 31L557.83 31L557.83 21.91ZM572.36 31L572.36 28.92L566.26 28.92L566.26 26.32L571.46 26.32L571.46 24.31L566.26 24.31L566.26 21.87L572.15 21.87L572.15 19.8L563.68 19.8L563.68 31L572.36 31ZM577.64 26.48L579.43 26.48L582.34 31L585.28 31L581.51 25.2L585.17 19.8L582.44 19.8L579.5 24.32L577.64 24.32L577.64 19.8L575.06 19.8L575.06 31L577.64 31L577.64 26.48ZM604.21 21.91L607.8 21.91L607.8 19.8L598.08 19.8L598.08 21.91L601.65 21.91L601.65 31L604.21 31L604.21 21.91ZM489.16 24.44L486.74 24.44L486.74 21.71L489.16 21.71Q489.99 21.71 490.43 22.07Q490.57 22.18 490.66 22.32Q490.87 22.62 490.87 23.07Q490.87 23.58 490.63 23.9Q490.55 24.01 490.44 24.09Q490 24.44 489.16 24.44ZM467.17 25.29Q466.56 25.8 465.4 25.8L463.29 25.8L463.29 21.91L465.4 21.91Q466.56 21.91 467.17 22.41Q467.33 22.55 467.45 22.71Q467.78 23.17 467.78 23.86Q467.78 24.52 467.47 24.97Q467.34 25.15 467.17 25.29ZM514.61 25.29Q514 25.8 512.84 25.8L510.73 25.8L510.73 21.91L512.84 21.91Q514 21.91 514.61 22.41Q514.77 22.55 514.89 22.71Q515.22 23.17 515.22 23.86Q515.22 24.52 514.91 24.97Q514.78 25.15 514.61 25.29ZM491.15 28.53Q490.72 29.07 489.59 29.07L486.74 29.07L486.74 26.24L489.59 26.24Q490.74 26.24 491.17 26.8Q491.41 27.12 491.41 27.64Q491.41 28.19 491.15 28.53Z" fill="#202027" fill-opacity="1.000000" fill-rule="evenodd"/>
			<path id="Star" d="M645.33 16L642.72 23.05L635.66 25.66L642.72 28.28L645.33 35.33L647.94 28.28L655 25.66L647.94 23.05L645.33 16Z" fill="#202027" fill-opacity="1.000000" fill-rule="evenodd"/>
			<path id="Простая арифметика" d="M828.43 27.9Q829.1 26.84 829.1 25.36Q829.1 23.96 828.48 22.93Q828.13 22.35 827.59 21.89Q826.08 20.61 823.24 20.45L823.24 19.32L820.86 19.32L820.86 20.47Q818.01 20.64 816.5 21.9Q815.98 22.33 815.64 22.87Q814.99 23.91 814.99 25.36Q814.99 26.77 815.61 27.8Q815.96 28.37 816.5 28.83Q818.01 30.1 820.86 30.26L820.86 31.49L823.24 31.49L823.24 30.28Q826.08 30.13 827.59 28.86Q828.09 28.43 828.43 27.9ZM712.18 30.6Q713.45 31.19 714.99 31.19Q716.54 31.19 717.82 30.59Q717.97 30.52 718.12 30.44Q718.96 29.98 719.58 29.33Q719.99 28.89 720.31 28.36Q720.54 28 720.7 27.6Q721.11 26.58 721.11 25.39Q721.11 24.22 720.71 23.21Q720.54 22.81 720.31 22.43Q719.99 21.89 719.57 21.45Q718.95 20.8 718.12 20.36Q717.96 20.27 717.8 20.2Q716.53 19.6 714.99 19.6Q713.46 19.6 712.2 20.18Q712.02 20.26 711.84 20.36Q710.99 20.81 710.37 21.48Q709.96 21.91 709.65 22.43Q709.44 22.78 709.28 23.16Q708.86 24.19 708.86 25.39Q708.86 26.61 709.29 27.66Q709.44 28.02 709.65 28.36Q709.96 28.88 710.36 29.3Q710.99 29.98 711.84 30.44Q712.01 30.53 712.18 30.6ZM726.39 30.66Q727.6 31.19 729.05 31.19Q730.51 31.19 731.69 30.67Q732.39 30.37 732.96 29.9Q733.35 29.58 733.68 29.19L732.01 27.65Q731.38 28.39 730.58 28.72Q729.94 28.98 729.19 28.98Q728.26 28.98 727.51 28.61Q727.43 28.57 727.34 28.52Q726.92 28.29 726.6 27.96Q726.29 27.65 726.07 27.25Q726.02 27.18 725.99 27.1Q725.61 26.34 725.61 25.39Q725.61 24.46 725.98 23.71Q726.02 23.62 726.07 23.54Q726.3 23.12 726.62 22.8Q726.94 22.49 727.34 22.27Q727.43 22.22 727.51 22.18Q728.26 21.81 729.19 21.81Q729.95 21.81 730.6 22.08Q731.39 22.4 732.01 23.12L733.68 21.59Q733.37 21.22 733.01 20.92Q732.42 20.43 731.7 20.12Q730.52 19.6 729.07 19.6Q727.56 19.6 726.31 20.17Q726.13 20.26 725.95 20.35Q725.17 20.77 724.57 21.38Q724.12 21.84 723.78 22.41Q723.6 22.71 723.47 23.01Q722.99 24.1 722.99 25.39Q722.99 26.68 723.46 27.76Q723.6 28.08 723.78 28.38Q724.12 28.94 724.57 29.4Q725.16 30.02 725.95 30.44Q726.17 30.56 726.39 30.66ZM694 31L694 19.8L683.79 19.8L683.79 31L686.36 31L686.36 21.91L691.42 21.91L691.42 31L694 31ZM704.85 20.29Q703.75 19.8 702.27 19.8L697.42 19.8L697.42 31L700.01 31L700.01 27.91L702.27 27.91Q703.75 27.91 704.85 27.42Q705.71 27.04 706.26 26.39Q706.41 26.21 706.53 26.01Q706.62 25.88 706.69 25.74Q707.13 24.92 707.13 23.86Q707.13 22.74 706.65 21.89Q706.59 21.79 706.53 21.7Q706.42 21.53 706.29 21.37Q705.74 20.69 704.85 20.29ZM740.87 21.91L744.46 21.91L744.46 19.8L734.75 19.8L734.75 21.91L738.32 21.91L738.32 31L740.87 31L740.87 21.91ZM748.56 28.6L753.76 28.6L754.75 31L757.47 31L752.46 19.8L749.9 19.8L744.91 31L747.56 31L748.56 28.6ZM767.96 31L767.96 19.8L763.13 19.8Q761.66 19.8 760.57 20.3Q759.77 20.67 759.24 21.27Q759.05 21.49 758.89 21.74Q758.88 21.76 758.87 21.78Q758.3 22.7 758.3 23.97Q758.3 25.25 758.87 26.17Q758.89 26.19 758.9 26.22Q759.05 26.44 759.22 26.63Q759.78 27.26 760.65 27.62L758.31 31L761.05 31L763.03 28.02L765.4 28.02L765.4 31L767.96 31ZM778.96 28.6L784.16 28.6L785.15 31L787.87 31L782.86 19.8L780.3 19.8L775.31 31L777.96 31L778.96 28.6ZM797.42 20.29Q796.33 19.8 794.84 19.8L789.99 19.8L789.99 31L792.59 31L792.59 27.91L794.84 27.91Q796.33 27.91 797.42 27.42Q798.29 27.04 798.83 26.39Q798.98 26.21 799.11 26.01Q799.2 25.88 799.27 25.74Q799.7 24.92 799.7 23.86Q799.7 22.74 799.22 21.89Q799.17 21.79 799.11 21.7Q799 21.53 798.87 21.37Q798.31 20.69 797.42 20.29ZM804.64 19.8L802.06 19.8L802.06 31L804.51 31L809.85 23.71L809.85 31L812.41 31L812.41 19.8L809.98 19.8L804.64 27.09L804.64 19.8ZM841.85 24.29L841.86 31L844.3 31L844.28 19.8L842.14 19.8L838.01 26.76L833.82 19.8L831.67 19.8L831.67 31L834.11 31L834.11 24.42L837.4 29.81L838.56 29.81L841.85 24.29ZM856.39 31L856.39 28.92L850.3 28.92L850.3 26.32L855.5 26.32L855.5 24.31L850.3 24.31L850.3 21.87L856.19 21.87L856.19 19.8L847.72 19.8L847.72 31L856.39 31ZM864.11 21.91L867.69 21.91L867.69 19.8L857.98 19.8L857.98 21.91L861.55 21.91L861.55 31L864.11 31L864.11 21.91ZM872.54 19.8L869.96 19.8L869.96 31L872.41 31L877.75 23.71L877.75 31L880.31 31L880.31 19.8L877.88 19.8L872.54 27.09L872.54 19.8ZM886.28 26.48L888.07 26.48L890.99 31L893.93 31L890.16 25.2L893.82 19.8L891.08 19.8L888.14 24.32L886.28 24.32L886.28 19.8L883.71 19.8L883.71 31L886.28 31L886.28 26.48ZM897.95 28.6L903.15 28.6L904.14 31L906.86 31L901.85 19.8L899.29 19.8L894.3 31L896.96 31L897.95 28.6ZM716.38 28.72Q715.74 28.98 714.99 28.98Q714.22 28.98 713.57 28.71Q713.38 28.63 713.2 28.52Q712.83 28.31 712.53 28.03Q712.18 27.69 711.94 27.25Q711.9 27.18 711.86 27.1Q711.48 26.34 711.48 25.39Q711.48 24.46 711.85 23.71Q711.89 23.62 711.94 23.54Q712.19 23.08 712.56 22.74Q712.84 22.47 713.2 22.27Q713.38 22.16 713.57 22.08Q714.22 21.81 714.99 21.81Q715.74 21.81 716.38 22.07Q716.59 22.16 716.78 22.27Q717.13 22.47 717.42 22.74Q717.78 23.08 718.04 23.54Q718.08 23.62 718.13 23.71Q718.49 24.46 718.49 25.39Q718.49 26.34 718.12 27.1Q718.08 27.18 718.04 27.25Q717.79 27.69 717.44 28.03Q717.15 28.31 716.78 28.52Q716.59 28.63 716.38 28.72ZM703.89 25.29Q703.29 25.8 702.12 25.8L700.01 25.8L700.01 21.91L702.12 21.91Q703.29 21.91 703.89 22.41Q704.06 22.55 704.18 22.71Q704.5 23.17 704.5 23.86Q704.5 24.52 704.19 24.97Q704.07 25.15 703.89 25.29ZM761.51 22.42Q762.09 21.91 763.19 21.91L765.4 21.91L765.4 25.97L763.13 25.97Q762.04 25.97 761.48 25.44Q761.4 25.37 761.33 25.28Q760.92 24.77 760.92 23.94Q760.92 23.08 761.35 22.58Q761.42 22.5 761.51 22.42ZM796.47 25.29Q795.86 25.8 794.7 25.8L792.59 25.8L792.59 21.91L794.7 21.91Q795.86 21.91 796.47 22.41Q796.63 22.55 796.75 22.71Q797.08 23.17 797.08 23.86Q797.08 24.52 796.77 24.97Q796.64 25.15 796.47 25.29ZM751.17 22.34L752.94 26.63L749.39 26.63L751.17 22.34ZM781.57 22.34L783.34 26.63L779.79 26.63L781.57 22.34ZM900.56 22.34L902.33 26.63L898.78 26.63L900.56 22.34ZM817.89 26.84Q817.5 26.23 817.5 25.36Q817.5 24.36 817.98 23.72Q818.13 23.52 818.32 23.35Q819.15 22.66 820.86 22.5L820.86 28.24Q818.65 28.01 817.89 26.84ZM825.77 27.37Q824.94 28.08 823.24 28.24L823.24 22.5Q825.42 22.69 826.18 23.82Q826.6 24.44 826.6 25.35Q826.6 26.33 826.14 26.97Q825.98 27.19 825.77 27.37Z" fill="#202027" fill-opacity="1.000000" fill-rule="evenodd"/>
			<path id="Star" d="M944.46 16L941.85 23.05L934.79 25.66L941.85 28.28L944.46 35.33L947.07 28.28L954.13 25.66L947.07 23.05L944.46 16Z" fill="#202027" fill-opacity="1.000000" fill-rule="evenodd"/>
			<path id="Камень, ножницы, бумага" d="M1087.56 30.6Q1088.84 31.19 1090.38 31.19Q1091.93 31.19 1093.21 30.59Q1093.37 30.52 1093.52 30.44Q1094.35 29.98 1094.97 29.33Q1095.39 28.89 1095.71 28.36Q1095.93 28 1096.09 27.6Q1096.51 26.58 1096.51 25.39Q1096.51 24.22 1096.1 23.21Q1095.93 22.81 1095.71 22.43Q1095.38 21.89 1094.96 21.45Q1094.35 20.8 1093.52 20.36Q1093.36 20.27 1093.18 20.2Q1091.93 19.6 1090.38 19.6Q1088.86 19.6 1087.59 20.18Q1087.41 20.26 1087.23 20.36Q1086.39 20.81 1085.76 21.48Q1085.36 21.91 1085.04 22.43Q1084.82 22.78 1084.68 23.16Q1084.25 24.19 1084.25 25.39Q1084.25 26.61 1084.68 27.66Q1084.84 28.02 1085.04 28.36Q1085.35 28.88 1085.75 29.3Q1086.38 29.98 1087.23 30.44Q1087.4 30.53 1087.56 30.6ZM985.47 26.48L987.26 26.48L990.17 31L993.11 31L989.34 25.2L993 19.8L990.26 19.8L987.32 24.32L985.47 24.32L985.47 19.8L982.89 19.8L982.89 31L985.47 31L985.47 26.48ZM997.13 28.6L1002.33 28.6L1003.33 31L1006.04 31L1001.04 19.8L998.47 19.8L993.48 31L996.14 31L997.13 28.6ZM1018.35 24.29L1018.36 31L1020.8 31L1020.78 19.8L1018.64 19.8L1014.51 26.76L1010.32 19.8L1008.17 19.8L1008.17 31L1010.61 31L1010.61 24.42L1013.9 29.81L1015.05 29.81L1018.35 24.29ZM1032.89 31L1032.89 28.92L1026.79 28.92L1026.79 26.32L1032 26.32L1032 24.31L1026.79 24.31L1026.79 21.87L1032.68 21.87L1032.68 19.8L1024.22 19.8L1024.22 31L1032.89 31ZM1045.9 31L1045.9 19.8L1043.31 19.8L1043.31 24.21L1038.22 24.21L1038.22 19.8L1035.63 19.8L1035.63 31L1038.22 31L1038.22 26.4L1043.31 26.4L1043.31 31L1045.9 31ZM1057.91 24.39Q1056.81 23.48 1054.77 23.48L1051.92 23.48L1051.92 19.8L1049.34 19.8L1049.34 31L1054.4 31Q1056.59 31 1057.8 30Q1058.09 29.75 1058.31 29.45Q1059 28.53 1059 27.09Q1059 25.66 1058.31 24.79Q1058.13 24.57 1057.91 24.39ZM1081.6 31L1081.6 19.8L1079 19.8L1079 24.21L1073.92 24.21L1073.92 19.8L1071.31 19.8L1071.31 31L1073.92 31L1073.92 26.4L1079 26.4L1079 31L1081.6 31ZM1107.28 26.48L1108.91 26.48L1111.42 31L1114.41 31L1111.06 25.14L1114.19 19.8L1111.47 19.8L1108.93 24.32L1107.28 24.32L1107.28 19.8L1104.73 19.8L1104.73 24.32L1103.02 24.32L1100.51 19.8L1097.77 19.8L1100.92 25.14L1097.56 31L1100.56 31L1103.06 26.48L1104.73 26.48L1104.73 31L1107.28 31L1107.28 26.48ZM1126.56 31L1126.56 19.8L1123.98 19.8L1123.98 24.21L1118.89 24.21L1118.89 19.8L1116.3 19.8L1116.3 31L1118.89 31L1118.89 26.4L1123.98 26.4L1123.98 31L1126.56 31ZM1132.59 19.8L1130.01 19.8L1130.01 31L1132.46 31L1137.8 23.71L1137.8 31L1140.36 31L1140.36 19.8L1137.93 19.8L1132.59 27.09L1132.59 19.8ZM1155.53 33.36L1155.53 28.88L1153.93 28.88L1153.93 19.8L1151.36 19.8L1151.36 28.88L1146.37 28.88L1146.37 19.8L1143.79 19.8L1143.79 31L1153.15 31L1153.15 33.36L1155.53 33.36ZM1166.44 24.39Q1165.36 23.48 1163.31 23.48L1160.46 23.48L1160.46 19.8L1157.88 19.8L1157.88 31L1162.93 31Q1165.13 31 1166.34 30Q1166.64 29.75 1166.86 29.45Q1167.55 28.53 1167.55 27.09Q1167.55 25.66 1166.85 24.79Q1166.67 24.57 1166.44 24.39ZM1171.55 19.8L1168.97 19.8L1168.97 31L1171.55 31L1171.55 19.8ZM1194.01 19.8L1184.97 19.8L1184.97 31L1190.28 31Q1192.43 31 1193.63 30.07Q1194.05 29.74 1194.31 29.31Q1194.81 28.54 1194.81 27.46Q1194.81 26.32 1194.27 25.56Q1194.06 25.26 1193.75 25.01Q1192.68 24.16 1190.65 24.16L1187.55 24.16L1187.55 21.86L1194.01 21.86L1194.01 19.8ZM1202.35 28.66L1207.12 19.8L1204.56 19.8L1201.5 25.81L1198.52 19.8L1195.76 19.8L1200.17 28.02L1200.07 28.15Q1199.76 28.64 1199.37 28.88Q1199.27 28.94 1199.17 28.98Q1198.87 29.11 1198.51 29.11Q1198.06 29.11 1197.39 28.9L1196.77 30.87Q1197.71 31.25 1198.59 31.25Q1199.06 31.25 1199.52 31.13Q1200.14 30.97 1200.68 30.6Q1201.66 29.94 1202.35 28.66ZM1219.16 24.29L1219.18 31L1221.61 31L1221.6 19.8L1219.44 19.8L1215.31 26.76L1211.13 19.8L1208.99 19.8L1208.99 31L1211.42 31L1211.42 24.42L1214.72 29.81L1215.87 29.81L1219.16 24.29ZM1227.42 28.6L1232.62 28.6L1233.61 31L1236.32 31L1231.31 19.8L1228.77 19.8L1223.77 31L1226.43 31L1227.42 28.6ZM1241.02 21.91L1246.35 21.91L1246.37 19.8L1238.46 19.8L1238.46 31L1241.04 31L1241.02 21.91ZM1248.8 28.6L1254 28.6L1254.99 31L1257.71 31L1252.69 19.8L1250.14 19.8L1245.15 31L1247.81 31L1248.8 28.6ZM1091.78 28.72Q1091.13 28.98 1090.38 28.98Q1089.62 28.98 1088.96 28.71Q1088.77 28.63 1088.59 28.52Q1088.22 28.31 1087.92 28.03Q1087.57 27.69 1087.32 27.25Q1087.29 27.18 1087.25 27.1Q1086.88 26.34 1086.88 25.39Q1086.88 24.46 1087.24 23.71Q1087.28 23.62 1087.32 23.54Q1087.59 23.08 1087.94 22.74Q1088.24 22.47 1088.59 22.27Q1088.77 22.16 1088.96 22.08Q1089.62 21.81 1090.38 21.81Q1091.13 21.81 1091.78 22.07Q1091.98 22.16 1092.17 22.27Q1092.53 22.47 1092.81 22.74Q1093.18 23.08 1093.43 23.54Q1093.48 23.62 1093.52 23.71Q1093.89 24.46 1093.89 25.39Q1093.89 26.34 1093.51 27.1Q1093.47 27.18 1093.43 27.25Q1093.18 27.69 1092.84 28.03Q1092.54 28.31 1092.17 28.52Q1091.98 28.63 1091.78 28.72ZM999.74 22.34L1001.52 26.63L997.96 26.63L999.74 22.34ZM1230.03 22.34L1231.81 26.63L1228.25 26.63L1230.03 22.34ZM1251.41 22.34L1253.18 26.63L1249.63 26.63L1251.41 22.34ZM1055.82 28.58Q1055.26 29.07 1054.25 29.07L1051.92 29.07L1051.92 25.39L1054.25 25.39Q1055.54 25.39 1056.06 26.02Q1056.4 26.44 1056.4 27.14Q1056.4 27.9 1056.03 28.37Q1055.93 28.48 1055.82 28.58ZM1164.37 28.58Q1163.81 29.07 1162.8 29.07L1160.46 29.07L1160.46 25.39L1162.8 25.39Q1164.09 25.39 1164.6 26.02Q1164.93 26.44 1164.93 27.14Q1164.93 27.9 1164.56 28.37Q1164.48 28.48 1164.37 28.58ZM1191.66 28.68Q1191.13 29.07 1190.14 29.07L1187.55 29.07L1187.55 26.07L1190.14 26.07Q1191.49 26.07 1191.94 26.71Q1192.18 27.04 1192.18 27.54Q1192.18 28.04 1191.96 28.38Q1191.84 28.55 1191.66 28.68ZM1062.85 28.21Q1062.5 28.02 1062.05 28.02Q1061.6 28.02 1061.26 28.2Q1061.07 28.3 1060.93 28.44Q1060.8 28.58 1060.69 28.73Q1060.49 29.08 1060.49 29.55Q1060.49 29.96 1060.66 30.28Q1060.68 30.34 1060.72 30.4Q1060.82 30.57 1060.98 30.69Q1061.15 30.83 1061.36 30.92L1060.65 33.46L1062.24 33.46L1063.15 31.16Q1063.42 30.51 1063.5 30.19Q1063.57 29.87 1063.57 29.55Q1063.57 29.07 1063.37 28.72Q1063.28 28.57 1063.15 28.44Q1063.01 28.31 1062.85 28.21ZM1176.49 28.21Q1176.15 28.02 1175.68 28.02Q1175.25 28.02 1174.91 28.2Q1174.73 28.3 1174.57 28.44Q1174.43 28.58 1174.35 28.73Q1174.14 29.08 1174.14 29.55Q1174.14 29.96 1174.3 30.28Q1174.32 30.34 1174.37 30.4Q1174.48 30.57 1174.63 30.69Q1174.8 30.83 1175.01 30.92L1174.3 33.46L1175.89 33.46L1176.8 31.16Q1177.06 30.51 1177.15 30.19Q1177.23 29.87 1177.23 29.55Q1177.23 29.07 1177.01 28.72Q1176.92 28.57 1176.8 28.44Q1176.66 28.31 1176.49 28.21Z" fill="#202027" fill-opacity="1.000000" fill-rule="evenodd"/>
			<path id="Star" d="M1295.6 16L1292.99 23.05L1285.93 25.66L1292.99 28.28L1295.6 35.33L1298.21 28.28L1305.27 25.66L1298.21 23.05L1295.6 16Z" fill="#202027" fill-opacity="1.000000" fill-rule="evenodd"/>
			<path id="Генератор случайных цветов" d="M1513.48 18.15Q1514.22 19.07 1516.1 19.07Q1517.66 19.07 1518.42 18.45Q1518.61 18.3 1518.75 18.11Q1519.19 17.53 1519.21 16.63L1517.43 16.63Q1517.42 17.12 1517.17 17.41Q1517.13 17.46 1517.08 17.5Q1516.75 17.8 1516.1 17.8Q1515.39 17.8 1515.06 17.44Q1514.79 17.15 1514.78 16.63L1513 16.63Q1513.01 17.57 1513.48 18.15ZM1418.29 30.6Q1419.56 31.19 1421.1 31.19Q1422.66 31.19 1423.93 30.59Q1424.08 30.52 1424.23 30.44Q1425.07 29.98 1425.69 29.33Q1426.11 28.89 1426.42 28.36Q1426.65 28 1426.81 27.6Q1427.23 26.58 1427.23 25.39Q1427.23 24.22 1426.82 23.21Q1426.65 22.81 1426.42 22.43Q1426.1 21.89 1425.68 21.45Q1425.06 20.8 1424.23 20.36Q1424.07 20.27 1423.91 20.2Q1422.64 19.6 1421.1 19.6Q1419.57 19.6 1418.31 20.18Q1418.13 20.26 1417.95 20.36Q1417.1 20.81 1416.48 21.48Q1416.07 21.91 1415.76 22.43Q1415.55 22.78 1415.39 23.16Q1414.97 24.19 1414.97 25.39Q1414.97 26.61 1415.4 27.66Q1415.56 28.02 1415.76 28.36Q1416.07 28.88 1416.47 29.3Q1417.1 29.98 1417.95 30.44Q1418.12 30.53 1418.29 30.6ZM1449.89 30.66Q1451.11 31.19 1452.55 31.19Q1454.01 31.19 1455.19 30.67Q1455.9 30.37 1456.46 29.9Q1456.85 29.58 1457.18 29.19L1455.51 27.65Q1454.88 28.39 1454.08 28.72Q1453.44 28.98 1452.7 28.98Q1451.77 28.98 1451.02 28.61Q1450.93 28.57 1450.84 28.52Q1450.42 28.29 1450.1 27.96Q1449.79 27.65 1449.57 27.25Q1449.53 27.18 1449.49 27.1Q1449.11 26.34 1449.11 25.39Q1449.11 24.46 1449.48 23.71Q1449.52 23.62 1449.57 23.54Q1449.8 23.12 1450.12 22.8Q1450.44 22.49 1450.84 22.27Q1450.93 22.22 1451.02 22.18Q1451.77 21.81 1452.7 21.81Q1453.46 21.81 1454.11 22.08Q1454.89 22.4 1455.51 23.12L1457.18 21.59Q1456.87 21.22 1456.51 20.92Q1455.93 20.43 1455.2 20.12Q1454.03 19.6 1452.57 19.6Q1451.06 19.6 1449.81 20.17Q1449.63 20.26 1449.46 20.35Q1448.67 20.77 1448.08 21.38Q1447.62 21.84 1447.28 22.41Q1447.1 22.71 1446.97 23.01Q1446.49 24.1 1446.49 25.39Q1446.49 26.68 1446.96 27.76Q1447.1 28.08 1447.28 28.38Q1447.62 28.94 1448.07 29.4Q1448.67 30.02 1449.46 30.44Q1449.67 30.56 1449.89 30.66ZM1624.14 30.6Q1625.42 31.19 1626.96 31.19Q1628.51 31.19 1629.79 30.59Q1629.94 30.52 1630.09 30.44Q1630.93 29.98 1631.55 29.33Q1631.96 28.89 1632.28 28.36Q1632.5 28 1632.66 27.6Q1633.08 26.58 1633.08 25.39Q1633.08 24.22 1632.67 23.21Q1632.51 22.81 1632.28 22.43Q1631.96 21.89 1631.54 21.45Q1630.92 20.8 1630.09 20.36Q1629.93 20.27 1629.77 20.2Q1628.5 19.6 1626.96 19.6Q1625.43 19.6 1624.17 20.18Q1623.98 20.26 1623.81 20.36Q1622.96 20.81 1622.34 21.48Q1621.93 21.91 1621.62 22.43Q1621.41 22.78 1621.25 23.16Q1620.83 24.19 1620.83 25.39Q1620.83 26.61 1621.26 27.66Q1621.41 28.02 1621.62 28.36Q1621.93 28.88 1622.33 29.3Q1622.95 29.98 1623.81 30.44Q1623.97 30.53 1624.14 30.6ZM1336.62 21.91L1341.95 21.91L1341.96 19.8L1334.06 19.8L1334.06 31L1336.63 31L1336.62 21.91ZM1352.86 31L1352.86 28.92L1346.76 28.92L1346.76 26.32L1351.96 26.32L1351.96 24.31L1346.76 24.31L1346.76 21.87L1352.65 21.87L1352.65 19.8L1344.18 19.8L1344.18 31L1352.86 31ZM1365.87 31L1365.87 19.8L1363.27 19.8L1363.27 24.21L1358.19 24.21L1358.19 19.8L1355.59 19.8L1355.59 31L1358.19 31L1358.19 26.4L1363.27 26.4L1363.27 31L1365.87 31ZM1377.98 31L1377.98 28.92L1371.88 28.92L1371.88 26.32L1377.08 26.32L1377.08 24.31L1371.88 24.31L1371.88 21.87L1377.77 21.87L1377.77 19.8L1369.3 19.8L1369.3 31L1377.98 31ZM1388.14 20.29Q1387.05 19.8 1385.56 19.8L1380.71 19.8L1380.71 31L1383.31 31L1383.31 27.91L1385.56 27.91Q1387.05 27.91 1388.14 27.42Q1389 27.04 1389.55 26.39Q1389.7 26.21 1389.83 26.01Q1389.91 25.88 1389.99 25.74Q1390.42 24.92 1390.42 23.86Q1390.42 22.74 1389.94 21.89Q1389.89 21.79 1389.83 21.7Q1389.72 21.53 1389.59 21.37Q1389.03 20.69 1388.14 20.29ZM1394.6 28.6L1399.8 28.6L1400.79 31L1403.51 31L1398.51 19.8L1395.95 19.8L1390.95 31L1393.61 31L1394.6 28.6ZM1410.06 21.91L1413.64 21.91L1413.64 19.8L1403.93 19.8L1403.93 21.91L1407.5 21.91L1407.5 31L1410.06 31L1410.06 21.91ZM1437.29 20.29Q1436.2 19.8 1434.71 19.8L1429.86 19.8L1429.86 31L1432.46 31L1432.46 27.91L1434.71 27.91Q1436.2 27.91 1437.29 27.42Q1438.16 27.04 1438.71 26.39Q1438.86 26.21 1438.98 26.01Q1439.07 25.88 1439.14 25.74Q1439.58 24.92 1439.58 23.86Q1439.58 22.74 1439.1 21.89Q1439.04 21.79 1438.98 21.7Q1438.87 21.53 1438.74 21.37Q1438.18 20.69 1437.29 20.29ZM1469.22 31L1469.22 19.8L1460.62 19.8L1460.46 24.34Q1460.36 26.67 1459.99 27.77Q1459.75 28.49 1459.27 28.74Q1459.02 28.87 1458.7 28.87Q1458.44 28.87 1458.23 28.8L1458.07 31Q1458.83 31.17 1459.35 31.17Q1460.34 31.17 1460.99 30.7Q1461.18 30.56 1461.35 30.38Q1462.06 29.59 1462.36 28.11Q1462.67 26.63 1462.74 24.24L1462.83 21.91L1466.67 21.91L1466.67 31L1469.22 31ZM1478.01 28.66L1482.78 19.8L1480.23 19.8L1477.16 25.81L1474.18 19.8L1471.42 19.8L1475.83 28.02L1475.74 28.15Q1475.42 28.64 1475.03 28.88Q1474.94 28.94 1474.83 28.98Q1474.53 29.11 1474.17 29.11Q1473.72 29.11 1473.05 28.9L1472.43 30.87Q1473.37 31.25 1474.25 31.25Q1474.73 31.25 1475.18 31.13Q1475.8 30.97 1476.35 30.6Q1477.32 29.94 1478.01 28.66ZM1494.09 31L1494.09 19.8L1491.53 19.8L1491.53 24.83Q1491.24 24.96 1490.93 25.06Q1490.07 25.33 1489.13 25.33Q1487.96 25.33 1487.35 24.75Q1487.3 24.71 1487.26 24.66Q1486.73 24.08 1486.73 23.01L1486.73 19.8L1484.17 19.8L1484.17 23.3Q1484.17 24.97 1484.98 26Q1485.16 26.22 1485.37 26.41Q1486.57 27.49 1488.83 27.49Q1490.07 27.49 1491.53 26.96L1491.53 31L1494.09 31ZM1499.9 28.6L1505.1 28.6L1506.09 31L1508.81 31L1503.8 19.8L1501.24 19.8L1496.25 31L1498.91 31L1499.9 28.6ZM1513.51 19.8L1510.94 19.8L1510.94 31L1513.39 31L1518.73 23.71L1518.73 31L1521.29 31L1521.29 19.8L1518.86 19.8L1513.51 27.09L1513.51 19.8ZM1534.99 31L1534.99 19.8L1532.39 19.8L1532.39 24.21L1527.31 24.21L1527.31 19.8L1524.71 19.8L1524.71 31L1527.31 31L1527.31 26.4L1532.39 26.4L1532.39 31L1534.99 31ZM1546.99 24.39Q1545.9 23.48 1543.85 23.48L1541 23.48L1541 19.8L1538.42 19.8L1538.42 31L1543.48 31Q1545.67 31 1546.88 30Q1547.18 29.75 1547.4 29.45Q1548.09 28.53 1548.09 27.09Q1548.09 25.66 1547.39 24.79Q1547.21 24.57 1546.99 24.39ZM1552.09 19.8L1549.51 19.8L1549.51 31L1552.09 31L1552.09 19.8ZM1559.85 23.19L1557.53 19.8L1554.54 19.8L1558.28 25.27L1554.28 31L1557.27 31L1559.85 27.28L1562.46 31L1565.51 31L1561.48 25.16L1565.21 19.8L1562.17 19.8L1559.85 23.19ZM1584.62 33.36L1584.62 28.88L1583.02 28.88L1583.02 19.8L1580.44 19.8L1580.44 28.88L1575.45 28.88L1575.45 19.8L1572.87 19.8L1572.87 31L1582.24 31L1582.24 33.36L1584.62 33.36ZM1596.29 26.14Q1595.75 25.46 1594.73 25.16Q1595.36 24.85 1595.76 24.35Q1595.83 24.26 1595.89 24.16Q1595.99 24.01 1596.06 23.86Q1596.31 23.33 1596.31 22.69Q1596.31 21.92 1595.97 21.34Q1595.7 20.88 1595.22 20.55Q1594.14 19.8 1592.19 19.8L1586.97 19.8L1586.97 31L1592.49 31Q1594.59 31 1595.71 30.16Q1596.2 29.81 1596.47 29.33Q1596.84 28.7 1596.84 27.84Q1596.84 27.03 1596.49 26.43Q1596.4 26.28 1596.3 26.15L1596.29 26.14ZM1608.2 31L1608.2 28.92L1602.1 28.92L1602.1 26.32L1607.31 26.32L1607.31 24.31L1602.1 24.31L1602.1 21.87L1607.99 21.87L1607.99 19.8L1599.53 19.8L1599.53 31L1608.2 31ZM1615.91 21.91L1619.5 21.91L1619.5 19.8L1609.78 19.8L1609.78 21.91L1613.35 21.91L1613.35 31L1615.91 31L1615.91 21.91ZM1645.04 26.14Q1644.5 25.46 1643.48 25.16Q1644.11 24.85 1644.51 24.35Q1644.58 24.26 1644.65 24.16Q1644.74 24.01 1644.81 23.86Q1645.06 23.33 1645.06 22.69Q1645.06 21.92 1644.73 21.34Q1644.46 20.88 1643.97 20.55Q1642.89 19.8 1640.94 19.8L1635.72 19.8L1635.72 31L1641.24 31Q1643.34 31 1644.47 30.16Q1644.95 29.81 1645.23 29.33Q1645.6 28.7 1645.6 27.84Q1645.6 27.03 1645.24 26.43Q1645.16 26.28 1645.05 26.15L1645.04 26.14ZM1591.96 24.44L1589.55 24.44L1589.55 21.71L1591.96 21.71Q1592.79 21.71 1593.23 22.07Q1593.37 22.18 1593.47 22.32Q1593.68 22.62 1593.68 23.07Q1593.68 23.58 1593.43 23.9Q1593.35 24.01 1593.24 24.09Q1592.81 24.44 1591.96 24.44ZM1640.71 24.44L1638.3 24.44L1638.3 21.71L1640.71 21.71Q1641.54 21.71 1641.99 22.07Q1642.12 22.18 1642.22 22.32Q1642.43 22.62 1642.43 23.07Q1642.43 23.58 1642.18 23.9Q1642.1 24.01 1641.99 24.09Q1641.56 24.44 1640.71 24.44ZM1422.49 28.72Q1421.85 28.98 1421.1 28.98Q1420.33 28.98 1419.68 28.71Q1419.49 28.63 1419.31 28.52Q1418.94 28.31 1418.64 28.03Q1418.3 27.69 1418.05 27.25Q1418.01 27.18 1417.97 27.1Q1417.59 26.34 1417.59 25.39Q1417.59 24.46 1417.96 23.71Q1418 23.62 1418.05 23.54Q1418.3 23.08 1418.67 22.74Q1418.95 22.47 1419.31 22.27Q1419.49 22.16 1419.68 22.08Q1420.33 21.81 1421.1 21.81Q1421.85 21.81 1422.49 22.07Q1422.7 22.16 1422.89 22.27Q1423.24 22.47 1423.53 22.74Q1423.89 23.08 1424.15 23.54Q1424.2 23.62 1424.24 23.71Q1424.6 24.46 1424.6 25.39Q1424.6 26.34 1424.23 27.1Q1424.19 27.18 1424.15 27.25Q1423.9 27.69 1423.56 28.03Q1423.26 28.31 1422.89 28.52Q1422.7 28.63 1422.49 28.72ZM1628.35 28.72Q1627.71 28.98 1626.96 28.98Q1626.19 28.98 1625.54 28.71Q1625.34 28.63 1625.16 28.52Q1624.79 28.31 1624.5 28.03Q1624.15 27.69 1623.91 27.25Q1623.86 27.18 1623.83 27.1Q1623.45 26.34 1623.45 25.39Q1623.45 24.46 1623.81 23.71Q1623.86 23.62 1623.91 23.54Q1624.16 23.08 1624.52 22.74Q1624.81 22.47 1625.16 22.27Q1625.34 22.16 1625.54 22.08Q1626.19 21.81 1626.96 21.81Q1627.71 21.81 1628.35 22.07Q1628.55 22.16 1628.75 22.27Q1629.1 22.47 1629.39 22.74Q1629.75 23.08 1630 23.54Q1630.05 23.62 1630.09 23.71Q1630.46 24.46 1630.46 25.39Q1630.46 26.34 1630.08 27.1Q1630.05 27.18 1630 27.25Q1629.76 27.69 1629.41 28.03Q1629.11 28.31 1628.75 28.52Q1628.55 28.63 1628.35 28.72ZM1387.19 25.29Q1386.58 25.8 1385.42 25.8L1383.31 25.8L1383.31 21.91L1385.42 21.91Q1386.58 21.91 1387.19 22.41Q1387.35 22.55 1387.47 22.71Q1387.8 23.17 1387.8 23.86Q1387.8 24.52 1387.49 24.97Q1387.36 25.15 1387.19 25.29ZM1436.34 25.29Q1435.74 25.8 1434.57 25.8L1432.46 25.8L1432.46 21.91L1434.57 21.91Q1435.74 21.91 1436.34 22.41Q1436.5 22.55 1436.62 22.71Q1436.95 23.17 1436.95 23.86Q1436.95 24.52 1436.64 24.97Q1436.51 25.15 1436.34 25.29ZM1397.21 22.34L1398.99 26.63L1395.44 26.63L1397.21 22.34ZM1502.51 22.34L1504.28 26.63L1500.73 26.63L1502.51 22.34ZM1544.91 28.58Q1544.35 29.07 1543.34 29.07L1541 29.07L1541 25.39L1543.34 25.39Q1544.63 25.39 1545.14 26.02Q1545.48 26.44 1545.48 27.14Q1545.48 27.9 1545.11 28.37Q1545.02 28.48 1544.91 28.58ZM1593.95 28.53Q1593.52 29.07 1592.39 29.07L1589.55 29.07L1589.55 26.24L1592.39 26.24Q1593.55 26.24 1593.97 26.8Q1594.22 27.12 1594.22 27.64Q1594.22 28.19 1593.95 28.53ZM1642.7 28.53Q1642.27 29.07 1641.15 29.07L1638.3 29.07L1638.3 26.24L1641.15 26.24Q1642.3 26.24 1642.72 26.8Q1642.97 27.12 1642.97 27.64Q1642.97 28.19 1642.7 28.53Z" fill="#202027" fill-opacity="1.000000" fill-rule="evenodd"/>
			<path id="Star" d="M1683.73 16L1681.12 23.05L1674.06 25.66L1681.12 28.28L1683.73 35.33L1686.34 28.28L1693.4 25.66L1686.34 23.05L1683.73 16Z" fill="#202027" fill-opacity="1.000000" fill-rule="evenodd"/>
		</g>
		<rect id="Frame 2043683043" rx="0.000000" width="1716.865479" height="50.801922" transform="translate(0.268599 0.268599)" stroke="#FFFFFF" stroke-opacity="0.200000" stroke-width="0.537198"/>
	</g>
</svg>
